<?xml version="1.0" encoding="utf-8"?>
<!-- Generator: Adobe Illustrator 24.3.0, SVG Export Plug-In . SVG Version: 6.00 Build 0)  -->
<svg version="1.1" id="Layer_1" xmlns="http://www.w3.org/2000/svg" xmlns:xlink="http://www.w3.org/1999/xlink" x="0px" y="0px"
	 viewBox="0 0 768 768" enable-background="new 0 0 768 768" xml:space="preserve">
<g>
	<g>
		<path fill="#2F3E46" d="M313.39,540.91c-5.57,15.45-9.78,28.72-15.28,41.44c-1.75,4.05-6.41,8.38-10.59,9.56
			c-29.03,8.2-66.36,6.35-86.99-26.61c-7.28-11.63-17.9-21.31-27.72-31.15c-9.64-9.67-34.82-14.5-45.07-3.12
			c2.24,2.78,4.02,7.02,7.12,8.5c20.99,10.1,33.59,28.08,40.83,48.62c16.78,47.61,64.57,56.98,104.29,48.9
			c9.92-2.02,17.03-0.87,16.47,12.34c-0.69,16.35,0.25,32.77-0.32,49.14c-0.39,11.38-4.44,18.71-18.63,17.07
			c-32.17-3.71-58.28-20.62-84.49-37.28C125.35,635.29,79.75,574.17,53.77,498.99c-17.37-50.26-19.84-102.58-14.1-155.82
			c6.51-60.51,29.26-113.94,65.15-161.64c53.29-70.82,123.16-116.8,211.17-131.56c27.24-4.57,55.32-6.8,82.9-6.02
			c67.99,1.92,129.38,24.68,184.53,64.73c45.38,32.97,80.33,74.89,105.65,124.7c29.84,58.69,40.86,121.87,35.06,186.88
			c-6.36,71.29-32.59,135.16-79.55,190.34c-41.89,49.23-91.94,85.37-153.47,105.16c-16.12,5.19-22.42,0.53-22.46-16.6
			c-0.07-28.16,0.16-56.32-0.08-84.47c-0.19-21.84-3.4-43-15.17-62.1c-5.44-8.82-3.68-13.17,7.75-14.79
			c35.74-5.08,69.41-16.02,96.34-41.71c27.67-26.4,39.2-60.72,42.2-97.44c2.16-26.54,3.7-53.93-8.49-79.31
			c-4.33-9.01-7.07-19.81-13.82-26.38c-10.88-10.6-11.11-22.09-7.36-34.26c6.81-22.13,1.12-43.13-4.89-63.86
			c-1.2-4.15-11.3-9.78-15.09-8.44c-24.37,8.61-48.03,19.24-72.16,28.59c-6.62,2.57-14.74,5.7-21,4.06
			c-49.71-13.03-99.59-12.97-148.84-0.2c-14.45,3.75-21.48-4.91-31.65-8.62c-20.95-7.65-41.91-15.32-62.48-23.9
			c-9.76-4.07-13.06,1.2-15.38,8.36c-7.64,23.63-10.72,47.42-3.94,72.09c1.46,5.3-0.1,13.24-3.34,17.73
			c-20.83,28.87-31.32,61.13-29.24,96.3c2.81,47.37,14.29,91.84,53.68,123.6c20.37,16.42,44.02,25.34,69.3,30.55
			C294.72,537,304.43,539.04,313.39,540.91z"/>
	</g>
</g>
</svg>
