<?xml version="1.0" encoding="utf-8"?>
<!-- Generator: Adobe Illustrator 24.3.0, SVG Export Plug-In . SVG Version: 6.00 Build 0)  -->
<svg version="1.1" id="Layer_1" xmlns="http://www.w3.org/2000/svg" xmlns:xlink="http://www.w3.org/1999/xlink" x="0px" y="0px"
	 viewBox="0 0 768 768" enable-background="new 0 0 768 768" xml:space="preserve">
<g>
	<g>
		<path fill="#2F3E46" d="M384.76,33.05c191.83-0.21,347.66,151.24,351.09,343.7c3.62,203.31-150.9,352.26-336.73,360.05
			C191.42,745.52,35.34,577.34,32.61,389.67C29.79,196.22,189.3,30.49,384.76,33.05z M434.66,344.24
			c-0.41-26.24-23.36-48.8-48.71-49.22c-27.59-0.45-52.16,21.61-52.34,48.71c-0.45,69.48-0.47,138.97,0.05,208.45
			c0.21,27.72,22.37,47.32,51.03,47.1c29.32-0.23,49.42-19.36,49.71-48.18 M434.94,220.58c-0.18-27.89-22.56-51.23-49.41-51.56
			c-29.7-0.36-51.95,22.66-52.3,53.46c-0.28,24.61,20,50.01,50.85,50.02C413.39,272.51,435.72,248.48,434.94,220.58z"/>
	</g>
</g>
</svg>
